<svg xmlns="http://www.w3.org/2000/svg" version="1.1" xmlns:xlink="http://www.w3.org/1999/xlink" xmlns:svgjs="http://svgjs.dev/svgjs" width="128" height="128" viewBox="0 0 128 128"><g transform="matrix(0.8046875,0,0,0.8046875,12.760752631578946,12.760752631578946)"><svg viewBox="0 0 95 95" data-background-color="#ffffff" preserveAspectRatio="xMidYMid meet" height="128" width="128" xmlns="http://www.w3.org/2000/svg" xmlns:xlink="http://www.w3.org/1999/xlink"><g id="tight-bounds" transform="matrix(1,0,0,1,-0.24049999999999727,-0.24049999999999727)"><svg viewBox="0 0 95.481 95.481" height="95.481" width="95.481"><g><svg viewBox="0 0 95.481 95.481" height="95.481" width="95.481"><g><svg viewBox="0 0 95.481 95.481" height="95.481" width="95.481"><g id="textblocktransform"><svg viewBox="0 0 95.481 95.481" height="95.481" width="95.481" id="textblock"><g><svg viewBox="0 0 95.481 95.481" height="95.481" width="95.481"><g><svg viewBox="0 0 95.481 95.481" height="95.481" width="95.481"><g><svg xmlns="http://www.w3.org/2000/svg" xmlns:xlink="http://www.w3.org/1999/xlink" version="1.1" x="0" y="0" viewBox="5 5 90 90" enable-background="new 0 0 100 100" xml:space="preserve" height="95.481" width="95.481" class="icon-icon-0" data-fill-palette-color="accent" id="icon-0"><path d="M88.816 88.816H53.092V74.046h20.954v-6.184H53.092V25.954H25.954v6.184h20.954v56.679H11.184V67.862H5V95h90V25.954h-6.184V88.816zM5 5v48.092h20.954v20.954h6.184V46.908H11.184V11.184h56.679v41.908h6.184V11.184H95V5H5zM38.596 72.123h1.854v-8.998h-1.854V72.123zM40.45 48.834h-1.854v8.998h1.854V48.834zM42.169 17.642v1.854h8.998v-1.854H42.169zM35.504 82.358h4.945v-4.946h-1.854v3.092h-3.092V82.358zM27.879 17.642v1.854h8.999v-1.854H27.879zM25.658 38.596v1.854h6.777v-1.854H25.658zM40.45 38.596h-4.945v1.854h3.092v3.092h1.854V38.596zM12.11 59.55H7.165v1.854h4.945V59.55zM17.642 82.358h4.945v-1.854h-3.092v-3.092h-1.854V82.358zM14.55 61.404h3.092v3.092h1.854V59.55H14.55V61.404zM25.657 80.504v1.854h6.777v-1.854H25.657zM19.496 67.566h-1.854v6.778h1.854V67.566zM17.642 40.45h4.945v-1.854h-3.092v-3.092h-1.854V40.45zM80.504 59.55h-3.092v1.854h4.946v-4.946h-1.854V59.55zM92.835 17.642H87.89v1.854h4.945V17.642zM80.504 51.167h1.854v-8.999h-1.854V51.167zM82.358 19.496h3.092v-1.854h-4.946v4.945h1.854V19.496zM19.496 25.658h-1.854v6.777h1.854V25.658zM22.587 17.642h-4.945v4.945h1.854v-3.092h3.092V17.642zM59.55 51.167h1.854v-8.998H59.55V51.167zM61.404 27.879H59.55v8.999h1.854V27.879zM59.55 61.404h4.946V59.55h-3.092v-3.092H59.55V61.404zM56.458 19.496h3.092v3.092h1.854v-4.945h-4.946V19.496zM74.345 59.55h-6.778v1.854h6.778V59.55zM80.504 36.876h1.854v-8.998h-1.854V36.876z" fill="#21a4df" data-fill-palette-color="accent"></path></svg></g></svg></g></svg></g></svg></g></svg></g></svg></g><defs></defs></svg><rect width="95.481" height="95.481" fill="none" stroke="none" visibility="hidden"></rect></g></svg></g></svg>